<svg xmlns="http://www.w3.org/2000/svg" xmlns:xlink="http://www.w3.org/1999/xlink" version="1.1" x="0px" y="0px" viewBox="0 0 100 125" style="enable-background:new 0 0 100 100;" xml:space="preserve"><style type="text/css">
	.st0{fill:#FFFFFF;}
	.st1{fill:none;stroke:#000000;stroke-miterlimit:10;}
	.st2{fill:none;stroke:#000000;stroke-width:2;stroke-linecap:round;stroke-linejoin:round;stroke-miterlimit:10;}
	.st3{fill:none;stroke:#000000;stroke-width:2;stroke-linejoin:round;stroke-miterlimit:10;}
	.st4{fill:none;stroke:#000000;stroke-linecap:round;stroke-miterlimit:10;}
	.st5{fill:none;stroke:#000000;stroke-linecap:round;stroke-miterlimit:10;stroke-dasharray:0,2;}
	.st6{fill:none;stroke:#FFFFFF;stroke-miterlimit:10;}
	.st7{fill:none;stroke:#FFFFFF;stroke-linejoin:round;stroke-miterlimit:10;}
	.st8{fill:none;stroke:#FF0000;stroke-width:1.7;stroke-miterlimit:10;}
</style><path d="M28,62.9c0,0.4,0.3,0.8,0.8,0.8h1c0.4,0,0.8-0.3,0.8-0.8v-1.7c0.7-0.1,1.2-0.3,1.7-0.5c0.5-0.2,0.8-0.5,1.1-0.9  c0.3-0.3,0.5-0.7,0.6-1.1c0.1-0.4,0.2-0.8,0.2-1.2c0-0.6-0.1-1.1-0.3-1.6c-0.2-0.4-0.5-0.8-0.9-1.2c-0.4-0.3-0.8-0.6-1.3-0.9  c-0.5-0.3-1.1-0.5-1.7-0.7c-0.4-0.1-0.7-0.3-1-0.4c-0.3-0.1-0.5-0.2-0.7-0.4c-0.2-0.1-0.3-0.3-0.4-0.4c-0.1-0.2-0.1-0.3-0.1-0.6  c0-0.4,0.1-0.6,0.4-0.9c0.3-0.2,0.8-0.3,1.4-0.3c0.7,0,1.3,0.1,1.9,0.2c0.6,0.1,1.6,0.5,2,0.7l0.2-2.6c-0.3-0.1-0.7-0.3-1.2-0.4  c-0.5-0.1-1.1-0.2-1.8-0.3v-1.4c0-0.4-0.3-0.8-0.8-0.8h-1c-0.4,0-0.8,0.3-0.8,0.8v1.4c-0.6,0.1-1.1,0.3-1.5,0.5  c-0.4,0.2-0.8,0.5-1.1,0.9c-0.3,0.3-0.5,0.7-0.6,1.1c-0.1,0.4-0.2,0.8-0.2,1.3c0,0.6,0.1,1.1,0.3,1.5c0.2,0.4,0.5,0.8,0.8,1  c0.3,0.3,0.7,0.5,1.2,0.7c0.4,0.2,0.9,0.4,1.3,0.5c0.5,0.2,0.9,0.3,1.2,0.5c0.4,0.1,0.6,0.3,0.9,0.4c0.2,0.1,0.4,0.3,0.5,0.5  c0.1,0.2,0.2,0.4,0.2,0.7c0,0.4-0.2,0.7-0.5,0.9c-0.3,0.2-0.6,0.3-1.4,0.3c-0.7,0-1.7-0.1-2.4-0.3c-0.7-0.2-1.7-0.6-2.1-0.9  l-0.4,2.6c0.3,0.1,0.8,0.3,1.4,0.6c0.6,0.2,1.4,0.4,2.4,0.5V62.9z"/><path d="M41.2,36.6c0.1,0.3,0.5,0.3,0.6,0l5.1-9.9c0.3-0.7,0.5-1.5,0.5-2.4c0-3.3-2.6-5.9-5.9-5.9c-3.3,0-5.9,2.6-5.9,5.9  c0,0.9,0.2,1.6,0.5,2.4L41.2,36.6z M41.5,21.9c1.4,0,2.5,1.1,2.5,2.5c0,1.4-1.1,2.5-2.5,2.5c-1.4,0-2.5-1.1-2.5-2.5  C39,23,40.1,21.9,41.5,21.9z"/><path d="M76.7,52.3c0-1.7-1.3-3-3-3h-5.3c-1.7,0-3,1.3-3,3v2.3c0,1.7,1.3,3,3,3v2.7c0,0.1,0.1,0.1,0.2,0.1l2.8-2.8h2.3  c1.7,0,3-1.3,3-3V52.3z M68.5,54.4c-0.5,0-0.9-0.4-0.9-0.9c0-0.5,0.4-0.9,0.9-0.9c0.5,0,0.9,0.4,0.9,0.9C69.4,54,69,54.4,68.5,54.4z   M71.1,54.4c-0.5,0-0.9-0.4-0.9-0.9c0-0.5,0.4-0.9,0.9-0.9c0.5,0,0.9,0.4,0.9,0.9C71.9,54,71.5,54.4,71.1,54.4z M73.6,54.4  c-0.5,0-0.9-0.4-0.9-0.9c0-0.5,0.4-0.9,0.9-0.9c0.5,0,0.9,0.4,0.9,0.9C74.5,54,74.1,54.4,73.6,54.4z"/><polygon points="60.5,71.6 64.5,71.6 60.5,67.9 "/><path d="M59.2,72.1v-4.8h-6.1c-0.1,0-0.2,0.1-0.2,0.2v15.7c0,0.1,0.1,0.2,0.2,0.2H65c0.1,0,0.2-0.1,0.2-0.2V72.7h-5.5  C59.5,72.7,59.2,72.4,59.2,72.1z M63.7,81.8h-9.2v-1.3h9.2V81.8z M63.7,78.6h-9.2v-1.3h9.2V78.6z M63.7,75.5h-9.2v-1.3h9.2V75.5z"/><path d="M60.4,38.6l0.3,0.3l6.5,6.5c0.2,0.2,0.5,0.2,0.6,0l6.5-6.5l0.3-0.3c1.9-1.9,1.9-5,0-6.8c-1.9-1.9-5-1.9-6.8,0l-0.3,0.3  l-0.3-0.3c-1.9-1.9-5-1.9-6.8,0C58.5,33.7,58.5,36.7,60.4,38.6z"/><path d="M80.2,28.8c1.7-0.6,2.6-2.5,1.9-4.2c-0.6-1.7-2.5-2.6-4.2-1.9c-1.7,0.6-2.6,2.5-1.9,4.2C76.6,28.6,78.5,29.5,80.2,28.8z"/><path d="M27.9,76.4c-1.1,0.4-1.7,1.7-1.3,2.8c0.4,1.1,1.7,1.7,2.8,1.3c1.1-0.4,1.7-1.7,1.3-2.8C30.3,76.5,29,76,27.9,76.4z"/><path d="M18.1,54.1c-1.1,0.4-1.7,1.7-1.3,2.8c0.4,1.1,1.7,1.7,2.8,1.3c1.1-0.4,1.7-1.7,1.3-2.8C20.5,54.3,19.2,53.7,18.1,54.1z"/><path d="M73.9,64c-1.1,0.4-1.7,1.7-1.3,2.8c0.4,1.1,1.7,1.7,2.8,1.3c1.1-0.4,1.7-1.7,1.3-2.8C76.3,64.1,75,63.6,73.9,64z"/><path d="M59.7,21.5c-1.1,0.4-1.7,1.7-1.3,2.8s1.7,1.7,2.8,1.3c1.1-0.4,1.7-1.7,1.3-2.8C62.1,21.7,60.9,21.1,59.7,21.5z"/><path d="M25.2,39.2c-0.6-1.7-2.5-2.6-4.2-1.9c-1.7,0.6-2.6,2.5-1.9,4.2c0.6,1.7,2.5,2.6,4.2,1.9C25,42.8,25.8,40.9,25.2,39.2z"/><path d="M78.2,44.4c0.8,2.3,3.4,3.4,5.6,2.6c2.3-0.8,3.4-3.4,2.6-5.6c-0.8-2.3-3.4-3.4-5.6-2.6C78.5,39.6,77.3,42.2,78.2,44.4z"/><path d="M93.6,85.2c-0.6-1.7-2.5-2.6-4.2-1.9c-0.3,0.1-0.5,0.2-0.7,0.4l-28-23.1c-0.4,0.4-0.7,0.9-1.1,1.3l28,23.2  c-0.4,0.8-0.4,1.7-0.1,2.5c0.6,1.7,2.5,2.6,4.2,1.9C93.4,88.8,94.3,86.9,93.6,85.2z"/><ellipse transform="matrix(0.974 -0.2265 0.2265 0.974 -4.592 7.0975)" cx="28.6" cy="23.6" rx="3.3" ry="3.3"/><path d="M37.2,69.4l4.7-5.8c-0.5-0.3-0.9-0.6-1.4-1l-4.7,5.7c-1.1-0.6-2.4-0.8-3.6-0.3c-2.3,0.8-3.4,3.4-2.6,5.6  c0.8,2.3,3.4,3.4,5.6,2.6c2.3-0.8,3.4-3.4,2.6-5.6C37.7,70.1,37.5,69.7,37.2,69.4z"/><path d="M62.6,51.8c0-7.2-5.8-13-13-13s-13,5.8-13,13s5.8,13,13,13S62.6,59,62.6,51.8z M49.6,43.1c2.6,0,4.7,2.1,4.7,4.7  s-2.1,4.7-4.7,4.7c-2.6,0-4.7-2.1-4.7-4.7S47,43.1,49.6,43.1z M49.6,63.2c-3,0-5.8-1.2-7.8-3.1c0.8-3.6,4-6.2,7.8-6.2s7,2.7,7.8,6.2  C55.4,62,52.6,63.2,49.6,63.2z"/><path d="M37.9,43.9c0.3-0.5,0.7-0.9,1-1.3l-25.4-21c0.6-1.1,0.7-2.4,0.3-3.6c-0.8-2.3-3.4-3.4-5.6-2.6c-2.3,0.8-3.4,3.4-2.6,5.6  c0.8,2.3,3.4,3.4,5.6,2.6c0.5-0.2,0.9-0.4,1.2-0.7L37.9,43.9z"/><path d="M53.1,38.2l4.8-28.6c0.3,0,0.6-0.1,0.8-0.2c1.7-0.6,2.6-2.5,1.9-4.2c-0.6-1.7-2.5-2.6-4.2-1.9c-1.7,0.6-2.6,2.5-1.9,4.2  c0.3,0.9,1,1.5,1.7,1.8l-4.8,28.5C52,37.9,52.5,38,53.1,38.2z"/><path d="M46.8,65.6L43,88.2c-0.5,0-1,0.1-1.4,0.3c-2.3,0.8-3.4,3.4-2.6,5.6c0.8,2.3,3.4,3.4,5.6,2.6c2.3-0.8,3.4-3.4,2.6-5.6  c-0.5-1.2-1.4-2.1-2.5-2.5l3.8-22.6C47.9,65.8,47.3,65.7,46.8,65.6z"/><text x="0" y="115" fill="#000000" font-size="5px" font-weight="bold" font-family="'Helvetica Neue', Helvetica, Arial-Unicode, Arial, Sans-serif">Created by Eliricon</text><text x="0" y="120" fill="#000000" font-size="5px" font-weight="bold" font-family="'Helvetica Neue', Helvetica, Arial-Unicode, Arial, Sans-serif">from the Noun Project</text></svg>