<svg xmlns="http://www.w3.org/2000/svg" xmlns:xlink="http://www.w3.org/1999/xlink" version="1.1" x="0px" y="0px" viewBox="0 0 120 150" style="enable-background:new 0 0 120 120;" xml:space="preserve"><g><g><path d="M72.5,82L51.6,94L35.7,23.8L60.5,29l1.4,6.2c0.8-0.3,1.6-0.4,2.5-0.5l-3.2-14.2c-0.3-1.1-1.1-2.1-2.2-2.4l-23.6-7.3    c-0.6-0.2-1.2-0.2-1.7-0.1c0,0-0.1,0-0.1,0l-4.9,1.1l-0.1,0c-1.7,0.4-2.8,2.2-2.4,3.9l20.6,91.1c0.2,0.9,0.7,1.6,1.5,2.1    c0.5,0.3,1.1,0.5,1.7,0.5c0.1,0,0.2,0,0.3,0c0,0,0,0,0,0c0.1,0,0.2,0,0.3,0l0.1,0c0,0,0,0,0,0c0,0,0,0,0,0l5-1.1c0,0,0,0,0,0    l0.1,0c0,0,0.1,0,0.1,0c0.4-0.1,0.7-0.3,1-0.5l18.8-14c1.1-0.8,1.5-2.1,1.3-3.4l-3.5-15.5h-2.6L72.5,82z M33.8,13.2    c0.1-0.1,0.4-0.2,0.7-0.1l23.6,7.3c0.3,0.1,0.5,0.3,0.5,0.6l1.4,6.4l-24.8-5.1l-1.8-8.2c0,0,0,0,0,0c0-0.1,0-0.1,0-0.2    C33.5,13.6,33.6,13.4,33.8,13.2z M50,106.9c-0.2,0-0.4,0-0.6-0.1c-0.1-0.1-0.3-0.2-0.4-0.5L28.5,15.2c-0.1-0.5,0.2-0.9,0.6-1    l1.9-0.4c0,0,0,0,0,0c0,0.3,0,0.6,0.1,0.8c0,0,0,0,0,0l20.6,91.1c0.1,0.3,0.2,0.5,0.3,0.8L50,106.9z M74.5,90.8    c0.1,0.3,0,0.6-0.3,0.8l-18.8,14c-0.1,0.1-0.2,0.1-0.3,0.2l-0.1,0c-0.3,0.1-0.6-0.1-0.8-0.3c-0.1-0.1-0.1-0.2-0.2-0.3l-2.2-9.6    l20.9-12L74.5,90.8z"/><path d="M64.7,95.8c0.2,0.1,0.3,0.1,0.5,0.1c0.3,0,0.5-0.1,0.8-0.2c0.9-0.6,1.1-2.2,0.8-3.4c-0.2-0.9-0.7-1.6-1.3-1.9    c-0.4-0.2-0.8-0.1-1.2,0.1c-1,0.6-1.2,2.2-0.9,3.4C63.6,94.9,64.1,95.6,64.7,95.8z M65,91.8c0.1,0.1,0.3,0.4,0.4,0.8v0    c0.2,0.8,0,1.5-0.1,1.7c-0.1-0.1-0.3-0.4-0.4-0.8C64.6,92.7,64.8,92.1,65,91.8z"/><path d="M44.9,20.1l6.9,1.9c0.1,0,0.1,0,0.2,0c0.3,0,0.6-0.2,0.7-0.6c0.1-0.4-0.1-0.8-0.5-0.9l-6.9-1.9c-0.4-0.1-0.8,0.1-0.9,0.5    C44.3,19.6,44.5,20,44.9,20.1z"/><path d="M88.4,37.2H64.7c-3.1,0-5.7,2.6-5.7,5.7v23.7c0,3.1,2.6,5.7,5.7,5.7h23.7c3.1,0,5.7-2.6,5.7-5.7V42.9    C94.1,39.7,91.5,37.2,88.4,37.2z M91.6,66.5c0,1.8-1.4,3.2-3.2,3.2H64.7c-1.8,0-3.2-1.4-3.2-3.2V42.9c0-1.8,1.4-3.2,3.2-3.2h23.7    c1.8,0,3.2,1.4,3.2,3.2V66.5z"/></g><path d="M76.5,43c-6.6,0-12,5.4-12,12.1s5.4,12.1,12,12.1s12-5.4,12-12.1S83.1,43,76.5,43z M86.8,53.3c-1.7-1.3-3.6-2.3-5.6-2.9   c-0.6-2-1.6-3.9-2.9-5.7C82.6,45.5,86.1,48.9,86.8,53.3z M73.5,60.3c1,0.2,2,0.3,3,0.3c1,0,2-0.1,3-0.3c-0.6,1.8-1.6,3.6-3,5.1   C75.1,63.9,74.1,62.1,73.5,60.3z M76.5,59.1c-1.2,0-2.4-0.2-3.5-0.4c-0.5-2.3-0.5-4.7,0-7.1c1.1-0.3,2.3-0.4,3.5-0.4   s2.4,0.2,3.5,0.4c0.5,2.3,0.5,4.7,0,7.1C78.8,58.9,77.7,59.1,76.5,59.1z M71.4,58.2c-1.8-0.7-3.6-1.7-5-3c1.5-1.4,3.2-2.4,5-3   C71,54.1,71,56.2,71.4,58.2z M79.5,50c-1-0.2-2-0.3-3-0.3c-1,0-2,0.1-3,0.3c0.6-1.8,1.6-3.6,3-5.1C77.8,46.4,78.8,48.1,79.5,50z    M81.6,52.1c1.8,0.7,3.6,1.7,5,3c-1.5,1.4-3.2,2.4-5,3C82,56.2,82,54.1,81.6,52.1z M74.7,44.7c-1.4,1.7-2.3,3.6-2.9,5.7   c-2,0.6-3.9,1.6-5.6,2.9C66.9,48.9,70.3,45.5,74.7,44.7z M66.1,57c1.7,1.3,3.6,2.3,5.6,2.9c0.6,2,1.6,3.9,2.9,5.7   C70.3,64.8,66.9,61.3,66.1,57z M78.3,65.6c1.4-1.7,2.3-3.6,2.9-5.7c2-0.6,3.9-1.6,5.6-2.9C86.1,61.3,82.6,64.8,78.3,65.6z"/></g><text x="0" y="135" fill="#000000" font-size="5px" font-weight="bold" font-family="'Helvetica Neue', Helvetica, Arial-Unicode, Arial, Sans-serif">Created by Symbolon</text><text x="0" y="140" fill="#000000" font-size="5px" font-weight="bold" font-family="'Helvetica Neue', Helvetica, Arial-Unicode, Arial, Sans-serif">from the Noun Project</text></svg>