<svg xmlns="http://www.w3.org/2000/svg" xmlns:xlink="http://www.w3.org/1999/xlink" version="1.1" x="0px" y="0px" viewBox="0 0 100 125" enable-background="new 0 0 100 100" xml:space="preserve"><path d="M64.85,40.151c-1.174-1.173-3.049-1.212-4.271-0.089L46.581,52.939c-1.628,1.499-1.672,4.042-0.116,5.596  c1.554,1.554,4.1,1.512,5.596-0.116l12.877-13.998C66.063,43.2,66.021,41.324,64.85,40.151z M47.879,57.122  c-0.756-0.758-0.728-1.988,0.057-2.71l0.769-0.708l2.592,2.592l-0.708,0.769C49.861,57.855,48.635,57.874,47.879,57.122z   M63.466,43.067L51.973,55.559l-2.533-2.533l12.492-11.492c0.428-0.395,1.088-0.382,1.502,0.031  C63.848,41.978,63.861,42.638,63.466,43.067z M39.273,60.07c-2.98,2.982-0.642,4.89-4.122,8.365  c-0.286,0.287-0.372,0.717-0.217,1.09c0.155,0.375,0.52,0.617,0.924,0.617c5.998,0,10.43-4.926,10.363-7.47  c-0.029-1.106-0.5-2.127-1.326-2.87C43.316,58.381,40.846,58.498,39.273,60.07z M38.202,67.844c1.758-2.955,0.556-4.429,2.485-6.361  c0.824-0.822,2.116-0.874,2.87-0.194c0.414,0.373,0.649,0.883,0.664,1.437C44.271,64.605,40.32,67.293,38.202,67.844z M78,23H22  c-1.654,0-3,1.346-3,3v48c0,1.654,1.346,3,3,3h56c1.654,0,3-1.346,3-3V26C81,24.346,79.654,23,78,23z M22,25h56c0.552,0,1,0.449,1,1  v6H21v-6C21,25.449,21.448,25,22,25z M21,38v-4h16v4H21z M37,39v13H21V39H37z M78,75H38v-3.044c-0.331,0.054-0.663,0.103-1,0.13V75  H22c-0.552,0-1-0.449-1-1V53h16v6.668c0.26-0.357,0.545-0.699,0.859-1.014c0.045-0.045,0.095-0.084,0.141-0.127V53v-1V39v-1v-4h41  v40C79,74.551,78.552,75,78,75z M24,28.5c0-0.828,0.672-1.5,1.5-1.5s1.5,0.672,1.5,1.5S26.328,30,25.5,30S24,29.328,24,28.5z   M29,28.5c0-0.828,0.672-1.5,1.5-1.5s1.5,0.672,1.5,1.5S31.328,30,30.5,30S29,29.328,29,28.5z M34,28.5c0-0.828,0.672-1.5,1.5-1.5  s1.5,0.672,1.5,1.5S36.328,30,35.5,30S34,29.328,34,28.5z M44.037,53H42V38h18.009c-0.513,0.315-0.772,0.58-1.229,1H43v13h1.722  C44.457,52.311,44.229,52.646,44.037,53z M65.305,38H75v15H59.764l0.92-1H74V39h-7.52C66.169,38.648,66.107,38.491,65.305,38z"/><text x="0" y="115" fill="#000000" font-size="5px" font-weight="bold" font-family="'Helvetica Neue', Helvetica, Arial-Unicode, Arial, Sans-serif">Created by Setyo Ari Wibowo</text><text x="0" y="120" fill="#000000" font-size="5px" font-weight="bold" font-family="'Helvetica Neue', Helvetica, Arial-Unicode, Arial, Sans-serif">from the Noun Project</text></svg>